<svg width="46" height="53" viewBox="0 0 46 53" fill="none" xmlns="http://www.w3.org/2000/svg">
<path d="M44.7932 0.155273H0V52.4262H44.7932V0.155273Z" fill="white"/>
<path d="M0.299805 16.4282V52.4223L31.2216 16.4282H0.299805Z" fill="#D0D2D3"/>
<path d="M22.6455 52.4224H45.0887V26.2583L22.6455 52.4224Z" fill="#D0D2D3"/>
<path d="M6.05354 11.1142H4.93848V5.53857H6.70636C8.012 5.53857 8.65672 6.49171 8.65672 7.42438C8.65672 8.36934 8.012 9.27747 6.71447 9.27747H6.05354V11.1142ZM7.52137 7.42438C7.52137 7.03577 7.23754 6.5367 6.70231 6.5367H6.04949V8.26298H6.70231C7.23754 8.26707 7.52137 7.80073 7.52137 7.42438Z" fill="#171112"/>
<path d="M14.6618 9.62159H12.7682L12.306 11.1106H11.0977L12.9669 5.50635H14.4429L16.3446 11.1106H15.1281L14.6618 9.62159ZM13.7089 6.33267L13.4089 7.56806L13.0926 8.56619H14.3253L14.0252 7.60079L13.717 6.33267H13.7089Z" fill="#171112"/>
<path d="M23.1611 7.10968C22.7232 6.64334 22.2041 6.45108 21.7378 6.46744C20.639 6.49199 20.0389 7.37967 20.0389 8.35326C20.0389 9.33502 20.6431 10.1941 21.7378 10.1941C22.2244 10.1941 22.7921 9.98953 23.2381 9.45774L24.0166 10.0673C23.3638 10.869 22.634 11.2413 21.7378 11.2413C19.9091 11.2413 18.9238 9.84636 18.9238 8.35735C18.9238 6.86833 19.9051 5.42432 21.7378 5.42432C22.5407 5.42432 23.2787 5.71885 23.8909 6.46335L23.1611 7.10968Z" fill="#171112"/>
<path d="M28.2977 5.53857V7.71892L30.1751 5.53857H31.5335L29.4209 8.09935L31.5497 11.1101H30.2278L28.6019 8.88067L28.2937 9.19157V11.1101H27.1543V5.53857H28.2977Z" fill="#171112"/>
<path d="M0 0V52.725H45.296V0H0ZM44.6959 1.11267V26.1477L22.5811 52.1032L22.6054 52.1237H1.12318L44.6959 1.11267ZM0.596053 51.8169V16.7269H30.569L0.596053 51.8169ZM44.3431 0.601333L31.084 16.1255H0.596053V0.601333H44.3431ZM23.3515 52.1237L44.6959 27.0722V52.1237H23.3515Z" fill="#171112"/>
</svg>